# xmcd
# 
# Track frame offsets:
#     187
#     20165
#     36980
#     50345
#     68362
#     89407
#     105627
#     125357
#     144240
#     165220
#     187387
# 
# Disc length: 2791
# 
# Revision: 2
# Processed by: cddbd v1.5.2PL0 Copyright (c) Steve Scherf et al.
# Submitted via: fre:ac v1.0.31
# 
DISCID=900ae50b
DTITLE=Eric Clapton - No Reason to Cry
DYEAR=1976
DGENRE=Rock
TTITLE0=Beautiful Thing
TTITLE1=Carnival
TTITLE2=Sign Language
TTITLE3=County Jail Blues
TTITLE4=All Our Past Times
TTITLE5=Hello Old Friend
TTITLE6=Double Trouble
TTITLE7=Innocent Times
TTITLE8=Hungry
TTITLE9=Black Summer Rain
TTITLE10=Last Night
EXTD=
EXTT0=
EXTT1=
EXTT2=
EXTT3=
EXTT4=
EXTT5=
EXTT6=
EXTT7=
EXTT8=
EXTT9=
EXTT10=
PLAYORDER=
